HIERARCHY
ROOT base
{
	OFFSET 0.0 0.0 0.0
	CHANNELS 6 Xposition Yposition Zposition Zrotation Yrotation Xrotation
	JOINT root
	{
		OFFSET 0 0 0
		CHANNELS 6 Xposition Yposition Zposition Zrotation Yrotation Xrotation
		JOINT chest
		{
			OFFSET 0 4.72302 0
			CHANNELS 3 Zrotation Yrotation Xrotation
			JOINT neck
			{
				OFFSET 0 4.47788 0
				CHANNELS 3 Zrotation Yrotation Xrotation
				End Site
				{
					OFFSET 0.0 0.0 0.0
				}
			}
			JOINT right_shoulder
			{
				OFFSET -0.481 4.87 3.6622
				CHANNELS 3 Zrotation Yrotation Xrotation
				JOINT right_elbow
				{
					OFFSET 0 -5.49576 0
					CHANNELS 3 Zrotation Yrotation Xrotation
					JOINT right_wrist
					{
						OFFSET 0 -5.17894 0
						CHANNELS 3 Zrotation Yrotation Xrotation
						End Site
						{
							OFFSET 0.0 0.0 0.0
						}
					}
				}
			}
			JOINT left_shoulder
			{
				OFFSET -0.481 4.87 -3.6622
				CHANNELS 3 Zrotation Yrotation Xrotation
				JOINT left_elbow
				{
					OFFSET 0 -5.49576 0
					CHANNELS 3 Zrotation Yrotation Xrotation
					JOINT left_wrist
					{
						OFFSET 0 -5.17894 0
						CHANNELS 3 Zrotation Yrotation Xrotation
						End Site
						{
							OFFSET 0.0 0.0 0.0
						}
					}
				}
			}
		}
		JOINT right_hip
		{
			OFFSET 0 0 1.69774
			CHANNELS 3 Zrotation Yrotation Xrotation
			JOINT right_knee
			{
				OFFSET 0 -8.43092 0
				CHANNELS 3 Zrotation Yrotation Xrotation
				JOINT right_ankle
				{
					OFFSET 0 -8.1974 0
					CHANNELS 3 Zrotation Yrotation Xrotation
					End Site
					{
						OFFSET 0.0 0.0 0.0
					}
				}
			}
		}
		JOINT left_hip
		{
			OFFSET 0 0 -1.69774
			CHANNELS 3 Zrotation Yrotation Xrotation
			JOINT left_knee
			{
				OFFSET 0 -8.43092 0
				CHANNELS 3 Zrotation Yrotation Xrotation
				JOINT left_ankle
				{
					OFFSET 0 -8.1974 0
					CHANNELS 3 Zrotation Yrotation Xrotation
					End Site
					{
						OFFSET 0.0 0.0 0.0
					}
				}
			}
		}
	}
	JOINT red_arrow
	{
		OFFSET 0 0 0
		CHANNELS 3 Zrotation Yrotation Xrotation
		End Site
		{
			OFFSET 0.0 0.0 0.0
		}
	}
	JOINT blue_arrow
	{
		OFFSET 0 0 0
		CHANNELS 3 Zrotation Yrotation Xrotation
		End Site
		{
			OFFSET 0.0 0.0 0.0
		}
	}
}
MOTION
Frames: 11
Frame Time: 0.0333333333333333
0 18.08466 0 0 0 0 0 0 0 0 -90 0 0 0 0 0 0 0 0 0 -90 0 0 0 0 0 0 0 0 90 0 0 0 0 0 0 0 0 0 0 0 0 0 0 0 0 0 0 0 0 0 0 0 0 0 0 0 0 0 0
1.73465777635574 0 -0.039077902585268 0 -8.40630639485692 0 0 15.9829260349274 0 -27.1508759839301 3.9756933518294E-16 -10.4965670776822 1.52283250869965 -0.0378903168561456 7.33616633933261 -2.37108242594625 -0.0522181288447369 0.756810809617322 -0.5061218901539 23.6981778704862 -28.1305594212875 75.9303319086288 0 0 0 0 0 -23.4009082608508 -21.0395466080707 33.406292205428 65.2287095547828 0 0 0 0 0 53.8685164368562 -2.60197726268354 10.4733352722419 -46.2580196445179 0 0 19.7697626027836 4.76268006111116 -1.20635950695009 32.1026796655945 4.65348455067732 13.5228859057574 -92.6028714839541 0 0 -1.71881258642218 3.32839402396858 -13.1458030551039 0 0 0 0 0 0
3.58158507347107 0 0.0372377499938011 0 -8.65666966290709 0 0 16.3356815695763 0 -28.8655009622893 -4.16811230035041 -12.5921802503713 3.0292785380712 2.52960774362507 5.21987664025951 -1.3974043691193 -0.736680829935326 1.47947296503416 17.0759562862687 31.8336440281083 -26.4235563405569 75.2470466142499 0 0 0 0 0 -43.5589066172013 -22.7874518323199 38.0469636145972 53.8442390386648 0 0 0 0 0 44.7569983514951 -3.20991600723955 13.6443472562072 -37.5769072660396 0 0 21.9531942777615 9.10798540719443 -0.992873961611103 51.9728165309946 -2.94209148420396 19.7410970173353 -97.3030525009201 0 0 6.75532215099622 5.26194022842516 -12.59800527309 0 0 0 0 0 0
5.80583725571632 0 -0.0753484472632408 0 -8.7169093579223 0 0 16.858141875267 0 -27.0848688221852 -1.01906256775715 -12.4396903926457 -1.91586312161675 2.29890898654748 1.05904680486339 3.45913372861867 -2.76442346883713 0.71111160715084 29.1087289266778 37.2037071323853 -29.5664781269951 81.6402676019219 0 0 0 0 0 -59.319879645761 -18.3504693957464 44.9897830773047 54.0344461466713 0 0 0 0 0 26.2100566512183 0.0579071758661888 11.6090435014643 -18.9464256632385 0 0 18.5260185902515 7.78052628907885 -0.3290103509238 62.4457105842045 -9.59005169567931 15.9411516502002 -92.5715482364205 0 0 15.2507288873978 7.88933373938132 -19.0014480144411 0 0 0 0 0 0
7.94291427135468 0 -0.38301497399807 0 -8.57548887252867 0 0 17.3868988394737 0 -27.9099951860006 2.3748306867705 -11.5312992684059 -4.86919835059564 1.79833588790903 -1.09730049126098 8.60125420949983 -3.71231134811495 -0.476068599214889 33.4067295798499 41.9087906686505 -38.5712955142205 93.1284750311541 0 0 0 0 0 -66.7632816908661 -9.97456796140739 47.9281082810377 61.8399590094052 0 0 0 0 0 15.3684268056234 1.44064992026473 8.41280465525572 -8.25339312604737 0 0 2.64193726477819 5.13185970937781 -1.14569496376234 68.2018098786257 -11.768313347126 10.2792898129002 -77.4632312640548 0 0 20.5947180231766 10.6161362941834 -23.9984708770273 0 0 0 0 0 0
10.0852578938007 0 -0.780251304805279 0 -8.26875735044838 0 0 17.8297416567802 0 -28.810964292993 5.11057689464618 -10.6049612408733 -7.75097691229224 1.13012313649847 -2.15618094114044 10.0378888303581 -2.83961542651449 -0.765888949527384 34.5630988653257 42.9011405426421 -45.1349251541328 100.042019829798 0 0 0 0 0 -66.5131917633989 -3.46927584376707 46.0212576296095 66.4727123988847 0 0 0 0 0 8.15279964827342 2.62710722769503 5.3528045326271 -4.55459553480711 0 0 -23.4682688465767 3.03258395766887 0.912702729347129 69.60565965794 -11.9163329875919 5.8230466180046 -58.4351028779646 0 0 24.795088565709 13.1128687223892 -25.090531240293 0 0 0 0 0 0
12.3069651246071 0 -1.19760145246983 0 -7.8375104502918 0 0 17.9493686795235 0 -28.302498049763 7.22523051400325 -9.28097901268971 -10.4388149920048 1.05618733364692 -3.04402699158182 8.87227737925806 -1.87674852845415 -0.466466873158935 36.2404685440246 42.2848666545469 -47.5015863511384 102.680474094849 0 0 0 0 0 -65.0202247477277 1.50834860305991 44.6877444013872 68.811888265074 0 0 0 0 0 0.882933923287926 3.97417193154698 2.2751403307421 -8.56270336525327 0 0 -42.9911133501967 4.36228778857285 5.84983578305635 69.5969731448027 -12.5535994436041 2.64761272719721 -40.4154314322594 0 0 28.1821312662516 14.2618185009434 -24.6996106693691 0 0 0 0 0 0
14.6396695613861 0 -1.63925248831511 0 -7.36011811941666 0 0 17.7554058551788 0 -26.1937027319613 8.15220106302612 -7.57471319081838 -12.5996165103349 1.40470217940188 -3.76990917458735 5.67060466343302 -1.38664363309011 -0.436786580559885 38.635154735332 39.2021983488875 -45.6697311482907 102.813744745935 0 0 0 0 0 -62.6726211533023 5.70755448637428 42.8462609198351 71.0867783907951 0 0 0 0 0 -6.84248077203356 4.56350200044844 -0.559818298610782 -17.3982540048283 0 0 -52.6052764593501 6.61824099406057 8.48076176278457 67.1281033885781 -12.5729326703043 1.16979793419143 -24.8867829108238 0 0 30.3741814021393 13.8510202924626 -22.7259130574254 0 0 0 0 0 0
17.0336421251297 0 -2.06142597645521 0 -6.9030318995876 0 0 17.3541256308556 0 -23.4437569025668 7.9773655251785 -6.13286948989603 -13.6936438731356 1.88989494465318 -4.17906734481413 2.10760922035448 -1.22189417096822 -0.798406164031365 40.853553509875 32.6526103942456 -39.6198472658572 99.5678817579938 0 0 0 0 0 -59.0425525111243 8.60730423197094 41.0246804660482 71.1826400957963 0 0 0 0 0 -12.2494685942687 4.38583489632855 -2.51138833589047 -30.4121754304796 0 0 -52.6214935240726 7.95138559380088 8.93118965675797 63.3798958622655 -12.4180426701912 0.63707456539777 -16.5939684942081 0 0 30.7140946495063 11.9996439204263 -18.5634393264463 0 0 0 0 0 0
19.4406839191914 0 -2.41566408500075 0 -6.50203191943552 0 0 16.8640070080757 0 -20.8863770487134 7.12367083028462 -5.56422221900299 -14.1491880344571 2.24897059379459 -4.31614888505004 0.127931927480765 -0.890256681042743 -0.820889947159973 39.4988306730415 23.5640406309066 -31.8437607063699 95.4190677617771 0 0 0 0 0 -53.8672858409211 9.53093594652098 38.5944283652581 68.9834148057005 0 0 0 0 0 -13.3510714740808 3.54933234132087 -2.96015840233437 -45.8845858818366 0 0 -47.8453542650943 8.76910190626955 8.12228699465897 58.5458664227161 -11.5441339111191 0.613564452502584 -16.4159430285863 0 0 28.474663048804 9.69237149816493 -14.0519025701671 0 0 0 0 0 0
21.7414371788502 0 -2.73145737051964 0 -6.1037792499371 0 0 16.3832431674004 0 -20.2838567585967 7.10250606600932 -5.86726297852936 -14.3830316146636 1.68770295249554 -4.37337948931216 0.915684998385294 -0.637620012851376 -0.385380755435715 29.0043091704029 14.9865255173323 -24.7157942273435 89.9861235600847 0 0 0 0 0 -46.1459256300477 7.3799593431472 33.5899893800762 66.9595682829232 0 0 0 0 0 -7.7939051829286 0.552444601523459 -2.04678000584265 -61.8151585925289 0 0 -39.0705070958611 7.86247145546861 6.75775323860138 54.8969702168527 -9.93804492522199 -0.953184678089551 -21.9320277079507 0 0 22.6289065382455 6.08904214722096 -2.95022775161405 0 0 0 0 0 0
